<svg width="30" height="29" viewBox="0 0 30 29" fill="none" xmlns="http://www.w3.org/2000/svg">
<path d="M11.75 23.4142C8.55556 23.4142 5.79861 22.3505 3.47917 20.2231C1.15972 18.0958 0 15.5703 0 12.6468V2.34925C0 1.72278 0.25 1.17463 0.75 0.704776C1.25 0.234925 1.83333 0 2.5 0H24.5417C26.0417 0 27.3264 0.482902 28.3958 1.44871C29.4653 2.41451 30 3.60219 30 5.01174C30 6.42129 29.4653 7.60897 28.3958 8.57477C27.3264 9.54057 26.0417 10.0235 24.5417 10.0235H23.5V12.6468C23.5 15.5703 22.3403 18.0958 20.0208 20.2231C17.7014 22.3505 14.9444 23.4142 11.75 23.4142ZM2.5 7.67422H21V2.34925H2.5V7.67422ZM11.75 21.065C14.2778 21.065 16.4514 20.2362 18.2708 18.5787C20.0903 16.9211 21 14.9439 21 12.6468V10.0235H2.5V12.6468C2.5 14.9439 3.40972 16.9211 5.22917 18.5787C7.04861 20.2362 9.22222 21.065 11.75 21.065ZM23.5 7.67422H24.5417C25.3472 7.67422 26.0417 7.41972 26.625 6.91072C27.2083 6.40171 27.5 5.76872 27.5 5.01174C27.5 4.25476 27.2083 3.62176 26.625 3.11276C26.0417 2.60375 25.3472 2.34925 24.5417 2.34925H23.5V7.67422ZM0 28.191V25.8418H26.4167V28.191H0Z" fill="url(#paint0_linear_14_105)"/>
<defs>
<linearGradient id="paint0_linear_14_105" x1="15" y1="0" x2="15" y2="28.191" gradientUnits="userSpaceOnUse">
<stop stop-color="#BFC2FF"/>
<stop offset="1" stop-color="#232ABC"/>
</linearGradient>
</defs>
</svg>
