<svg width="25" height="25" viewBox="0 0 25 25" fill="none" xmlns="http://www.w3.org/2000/svg">
<path d="M14.5833 10.052V8.80204C15.1562 8.55899 15.7422 8.3767 16.3411 8.25517C16.9401 8.13364 17.5694 8.07288 18.2292 8.07288C18.6806 8.07288 19.1233 8.1076 19.5573 8.17704C19.9913 8.24649 20.4167 8.33329 20.8333 8.43746V9.58329C20.4167 9.42704 19.9957 9.30985 19.5703 9.23173C19.145 9.1536 18.6979 9.11454 18.2292 9.11454C17.5694 9.11454 16.9358 9.19701 16.3281 9.36194C15.7205 9.52687 15.1389 9.7569 14.5833 10.052ZM14.5833 15.7812V14.5052C15.1562 14.2621 15.7422 14.0842 16.3411 13.9713C16.9401 13.8585 17.5694 13.802 18.2292 13.802C18.6806 13.802 19.1233 13.8368 19.5573 13.9062C19.9913 13.9757 20.4167 14.0625 20.8333 14.1666V15.3125C20.4167 15.1562 19.9957 15.039 19.5703 14.9609C19.145 14.8828 18.6979 14.8437 18.2292 14.8437C17.5694 14.8437 16.9358 14.9218 16.3281 15.0781C15.7205 15.2343 15.1389 15.4687 14.5833 15.7812ZM14.5833 12.9166V11.6666C15.1562 11.4236 15.7422 11.2413 16.3411 11.1198C16.9401 10.9982 17.5694 10.9375 18.2292 10.9375C18.6806 10.9375 19.1233 10.9722 19.5573 11.0416C19.9913 11.1111 20.4167 11.1979 20.8333 11.302V12.4479C20.4167 12.2916 19.9957 12.1744 19.5703 12.0963C19.145 12.0182 18.6979 11.9791 18.2292 11.9791C17.5694 11.9791 16.9358 12.0616 16.3281 12.2265C15.7205 12.3915 15.1389 12.6215 14.5833 12.9166ZM6.45833 17.1875C7.39583 17.1875 8.30295 17.296 9.17968 17.513C10.0564 17.73 10.9201 18.0555 11.7708 18.4895V7.36975C10.9896 6.84892 10.1432 6.44527 9.23177 6.15881C8.32031 5.87235 7.39583 5.72913 6.45833 5.72913C5.79861 5.72913 5.15191 5.81159 4.51823 5.97652C3.88455 6.14145 3.24653 6.34545 2.60416 6.5885V17.8906C3.14236 17.6475 3.75434 17.4696 4.4401 17.3567C5.12586 17.2439 5.79861 17.1875 6.45833 17.1875ZM13.3333 18.4895C14.2014 18.0555 15.0521 17.73 15.8854 17.513C16.7187 17.296 17.6042 17.1875 18.5417 17.1875C19.2014 17.1875 19.8828 17.2395 20.5859 17.3437C21.2891 17.4479 21.8924 17.5868 22.3958 17.7604V6.5885C21.8056 6.29336 21.1806 6.07635 20.5208 5.93746C19.8611 5.79857 19.2014 5.72913 18.5417 5.72913C17.6042 5.72913 16.697 5.87235 15.8203 6.15881C14.9436 6.44527 14.1146 6.84892 13.3333 7.36975V18.4895ZM12.5521 20.8333C11.6667 20.1736 10.7031 19.6658 9.66146 19.3099C8.61979 18.954 7.55208 18.776 6.45833 18.776C5.81597 18.776 5.19097 18.8541 4.58333 19.0104C3.97569 19.1666 3.36805 19.3576 2.76041 19.5833C2.36111 19.7743 1.97482 19.7482 1.60156 19.5052C1.2283 19.2621 1.04166 18.9149 1.04166 18.4635V6.40621C1.04166 6.14579 1.10243 5.90708 1.22396 5.69006C1.34548 5.47305 1.52778 5.30378 1.77083 5.18225C2.5 4.83503 3.25955 4.57895 4.04948 4.41402C4.83941 4.24909 5.64236 4.16663 6.45833 4.16663C7.55208 4.16663 8.61545 4.3142 9.64843 4.60933C10.6814 4.90447 11.6493 5.35586 12.5521 5.9635C13.4375 5.35586 14.388 4.90447 15.4036 4.60933C16.4193 4.3142 17.4653 4.16663 18.5417 4.16663C19.3576 4.16663 20.1562 4.24909 20.9375 4.41402C21.7187 4.57895 22.474 4.83503 23.2031 5.18225C23.4462 5.30378 23.6328 5.47305 23.763 5.69006C23.8932 5.90708 23.9583 6.14579 23.9583 6.40621V18.4635C23.9583 18.9496 23.763 19.3185 23.3724 19.5703C22.9818 19.822 22.5955 19.8263 22.2135 19.5833C21.6233 19.3402 21.0243 19.1449 20.4167 18.9974C19.809 18.8498 19.184 18.776 18.5417 18.776C17.4479 18.776 16.3976 18.9583 15.3906 19.3229C14.3837 19.6875 13.4375 20.1909 12.5521 20.8333Z" fill="#A3A3A3"/>
</svg>
