<svg width="60" height="48" viewBox="0 0 60 48" fill="none" xmlns="http://www.w3.org/2000/svg">
<path d="M4.5 48C3.3 48 2.25 47.55 1.35 46.65C0.45 45.75 0 44.7 0 43.5V4.5C0 3.3 0.45 2.25 1.35 1.35C2.25 0.449999 3.3 0 4.5 0H55.5C56.7 0 57.75 0.449999 58.65 1.35C59.55 2.25 60 3.3 60 4.5V43.5C60 44.7 59.55 45.75 58.65 46.65C57.75 47.55 56.7 48 55.5 48H4.5ZM30 25.35L4.5 8.625V43.5H55.5V8.625L30 25.35ZM30 20.85L55.2 4.5H4.875L30 20.85ZM4.5 8.625V4.5V43.5V8.625Z" fill="url(#paint0_linear_87_3)"/>
<defs>
<linearGradient id="paint0_linear_87_3" x1="30" y1="0" x2="30" y2="48" gradientUnits="userSpaceOnUse">
<stop stop-color="#8489FF"/>
<stop offset="1" stop-color="#040BAB"/>
</linearGradient>
</defs>
</svg>
