<svg width="32" height="32" viewBox="0 0 32 32" fill="none" xmlns="http://www.w3.org/2000/svg">
<g clip-path="url(#clip0_19_6)">
<path d="M8.3125 26.0938C8.25 26.0312 8.21875 25.8646 8.21875 25.5938C8.21875 25.2396 8.25 25.0625 8.3125 25.0625C8.5 25.0625 8.73958 25.0312 9.03125 24.9688C9.34375 24.9062 9.63542 24.8229 9.90625 24.7188C10.1979 24.6146 10.3646 24.5 10.4062 24.375C10.5521 23.9583 10.625 23.0104 10.625 21.5312V9.71875C10.625 8.48958 10.5417 7.60417 10.375 7.0625C10.3333 6.9375 10.1771 6.82292 9.90625 6.71875C9.65625 6.61458 9.375 6.53125 9.0625 6.46875C8.77083 6.38542 8.54167 6.34375 8.375 6.34375C8.29167 6.34375 8.25 6.1875 8.25 5.875C8.25 5.54167 8.27083 5.35417 8.3125 5.3125L10.0625 5.40625C10.5833 5.42708 11.0417 5.45833 11.4375 5.5C11.8542 5.52083 12.1979 5.52083 12.4688 5.5L16.4688 5.3125C16.5312 5.5 16.5625 5.66667 16.5625 5.8125C16.5625 6.16667 16.5208 6.34375 16.4375 6.34375C16.3125 6.34375 16.0938 6.38542 15.7812 6.46875C15.4688 6.55208 15.1667 6.64583 14.875 6.75C14.6042 6.85417 14.4479 6.95833 14.4062 7.0625C14.3229 7.39583 14.2604 7.79167 14.2188 8.25C14.1771 8.6875 14.1562 9.20833 14.1562 9.8125V21.5625C14.1562 22.5625 14.25 23.3958 14.4375 24.0625C14.5208 24.3333 15.2292 24.4688 16.5625 24.4688H17.7188C19.3646 24.4688 20.6042 24.25 21.4375 23.8125C21.7708 23.6458 22.1458 23.2812 22.5625 22.7188C22.9792 22.1562 23.3021 21.5208 23.5312 20.8125C23.5729 20.6875 23.7188 20.625 23.9688 20.625C24.4271 20.625 24.7188 20.6875 24.8438 20.8125L23.8438 23.5938C23.7188 23.9271 23.5833 24.3542 23.4375 24.875C23.2917 25.375 23.1979 25.7812 23.1562 26.0938C22.3229 26.0938 20.6042 26.0625 18 26C16.6875 25.9583 15.5729 25.9375 14.6562 25.9375C13.7396 25.9375 13.0104 25.9479 12.4688 25.9688L8.3125 26.0938Z" fill="url(#paint0_linear_19_6)"/>
</g>
<defs>
<linearGradient id="paint0_linear_19_6" x1="16.5" y1="-19" x2="16.5" y2="51" gradientUnits="userSpaceOnUse">
<stop stop-color="#8489FF"/>
<stop offset="1" stop-color="#040BAB"/>
</linearGradient>
<clipPath id="clip0_19_6">
<rect width="32" height="32" fill="white"/>
</clipPath>
</defs>
</svg>
