<svg width="25" height="25" viewBox="0 0 25 25" fill="none" xmlns="http://www.w3.org/2000/svg">
<path d="M12.3698 22.9167L17.0833 10.4167H19.2188L24.0625 22.9167H21.7969L20.7292 19.6355H15.7292L14.5052 22.9167H12.3698ZM16.3021 17.8125H20L18.1771 12.7605H18.125L16.3021 17.8125ZM4.16667 19.7917L2.73437 18.3594L8.04687 13.0469C7.38715 12.283 6.80121 11.5148 6.28906 10.7422C5.77691 9.96966 5.32986 9.16671 4.94792 8.33337H7.21354C7.50868 8.90629 7.8342 9.44883 8.1901 9.96098C8.54601 10.4731 8.94965 10.9983 9.40104 11.5365C10.1823 10.7205 10.8333 9.87417 11.3542 8.99744C11.875 8.1207 12.3177 7.2049 12.6823 6.25004H1.04167V4.16671H8.33333V2.08337H10.4167V4.16671H17.7083V6.25004H14.7656C14.3837 7.44796 13.8759 8.62417 13.2422 9.77869C12.6085 10.9332 11.8316 12.0313 10.9115 13.073L13.4635 15.6511L12.6823 17.7605L9.375 14.5834L4.16667 19.7917Z" fill="#A3A3A3"/>
</svg>
