<svg width="60" height="53" viewBox="0 0 60 53" fill="none" xmlns="http://www.w3.org/2000/svg">
<path d="M55.7143 0H4.27232C1.91518 0 0 1.69922 0 3.78516V48.7148C0 50.8008 1.91518 52.5 4.27232 52.5H55.7143C58.0714 52.5 60 50.8008 60 48.7148V3.78516C60 1.69922 58.0714 0 55.7143 0ZM18.1339 45H9.24107V19.9453H18.1473V45H18.1339ZM13.6875 16.5234C10.8348 16.5234 8.53125 14.4961 8.53125 12.0117C8.53125 9.52734 10.8348 7.5 13.6875 7.5C16.5268 7.5 18.8437 9.52734 18.8437 12.0117C18.8437 14.5078 16.5402 16.5234 13.6875 16.5234V16.5234ZM51.4687 45H42.5759V32.8125C42.5759 29.9063 42.5089 26.168 37.9554 26.168C33.3214 26.168 32.6116 29.332 32.6116 32.6016V45H23.7188V19.9453H32.25V23.3672H32.3705C33.5625 21.3984 36.4687 19.3242 40.7946 19.3242C49.7946 19.3242 51.4687 24.5156 51.4687 31.2656V45V45Z" fill="url(#paint0_linear_79_5)"/>
<defs>
<linearGradient id="paint0_linear_79_5" x1="30" y1="0" x2="30" y2="52.5" gradientUnits="userSpaceOnUse">
<stop stop-color="#8489FF"/>
<stop offset="1" stop-color="#040BAB"/>
</linearGradient>
</defs>
</svg>
