<svg width="195" height="36" viewBox="0 0 195 36" fill="none" xmlns="http://www.w3.org/2000/svg">
<path d="M0.765625 27.1172C0.713542 27.0651 0.6875 26.9479 0.6875 26.7656C0.6875 26.2188 0.778646 25.9453 0.960938 25.9453C1.14323 25.9453 1.41667 25.8932 1.78125 25.7891C2.14583 25.6849 2.4974 25.5547 2.83594 25.3984C3.17448 25.2422 3.36979 25.099 3.42188 24.9688C3.76042 24.1875 4.07292 23.0677 4.35938 21.6094L7.25 6.76562C7.5625 5.22917 7.69271 4.1224 7.64062 3.44531C7.64062 3.28906 7.4974 3.13281 7.21094 2.97656C6.92448 2.79427 6.61198 2.63802 6.27344 2.50781C5.96094 2.3776 5.71354 2.3125 5.53125 2.3125C5.50521 2.3125 5.49219 2.26042 5.49219 2.15625C5.49219 1.63542 5.57031 1.29688 5.72656 1.14062C6.6901 1.19271 7.54948 1.23177 8.30469 1.25781C9.08594 1.28385 9.77604 1.29688 10.375 1.29688C10.9219 1.29688 11.5729 1.28385 12.3281 1.25781C13.1094 1.23177 13.9948 1.19271 14.9844 1.14062V1.29688C14.9844 1.47917 14.9453 1.70052 14.8672 1.96094C14.8151 2.19531 14.75 2.3125 14.6719 2.3125C14.5417 2.3125 14.2943 2.36458 13.9297 2.46875C13.5911 2.57292 13.2526 2.70312 12.9141 2.85938C12.6016 2.98958 12.4062 3.11979 12.3281 3.25C12.0938 3.74479 11.8984 4.29167 11.7422 4.89062C11.5859 5.46354 11.4427 6.07552 11.3125 6.72656L8.46094 21.5703C8.35677 22.0651 8.27865 22.5208 8.22656 22.9375C8.17448 23.3542 8.14844 23.7448 8.14844 24.1094C8.14844 24.526 8.26562 24.7995 8.5 24.9297C8.63021 24.9818 8.91667 25.0208 9.35938 25.0469C9.80208 25.0729 10.6484 25.0859 11.8984 25.0859C13.2526 25.0859 14.3854 24.9557 15.2969 24.6953C16.2083 24.4089 17.0026 23.9401 17.6797 23.2891C18.3568 22.612 18.9948 21.6875 19.5938 20.5156C19.6719 20.3594 19.8542 20.2812 20.1406 20.2812C20.6615 20.2812 20.974 20.3594 21.0781 20.5156C19.151 24.2396 18.0703 26.4401 17.8359 27.1172C17.1589 27.1172 16.2734 27.1042 15.1797 27.0781C14.112 27.0781 12.849 27.0651 11.3906 27.0391C9.93229 26.987 8.70833 26.9479 7.71875 26.9219C6.75521 26.8958 6.01302 26.8958 5.49219 26.9219L0.765625 27.1172Z" fill="#141414"/>
<path d="M27.6016 27.2734C25.8307 27.2734 24.9453 26.1406 24.9453 23.875C24.9453 23.3802 24.9974 22.7812 25.1016 22.0781C25.2057 21.375 25.349 20.5677 25.5312 19.6562L26.4688 14.8906C26.5208 14.6562 26.5599 14.4349 26.5859 14.2266C26.612 14.0182 26.625 13.8229 26.625 13.6406C26.625 13.0156 26.4948 12.7031 26.2344 12.7031C26.026 12.7031 25.7526 12.8203 25.4141 13.0547C25.1016 13.2891 24.7891 13.5625 24.4766 13.875C24.1641 14.1875 23.9167 14.4479 23.7344 14.6562C23.6823 14.6562 23.5651 14.526 23.3828 14.2656C23.2005 14.0052 23.1094 13.8229 23.1094 13.7188C23.2656 13.4062 23.5521 13.0286 23.9688 12.5859C24.4115 12.1432 24.9193 11.7135 25.4922 11.2969C26.0651 10.8542 26.638 10.4896 27.2109 10.2031C27.8099 9.89062 28.3307 9.73438 28.7734 9.73438C29.2682 9.73438 29.6719 9.92969 29.9844 10.3203C30.2969 10.6849 30.4531 11.1927 30.4531 11.8438C30.4531 12.5469 30.349 13.3802 30.1406 14.3438L29.0078 19.8906C28.9036 20.4635 28.8255 20.9323 28.7734 21.2969C28.7214 21.6354 28.6953 21.8958 28.6953 22.0781C28.6953 23.1719 29.0078 23.7188 29.6328 23.7188C30.0234 23.7188 30.4922 23.4062 31.0391 22.7812C31.612 22.1302 32.1979 21.2969 32.7969 20.2812C33.4219 19.2656 33.9688 18.1719 34.4375 17C34.9323 15.8021 35.2969 14.6562 35.5312 13.5625L36.2734 10.0078C36.7422 9.8776 37.3151 9.8125 37.9922 9.8125C38.6172 9.8125 39.2161 9.8776 39.7891 10.0078L37.4062 22.4297C37.3802 22.5599 37.3542 22.7031 37.3281 22.8594C37.3281 23.0156 37.3281 23.1849 37.3281 23.3672C37.3281 24.0182 37.4583 24.3438 37.7188 24.3438C38.1094 24.3438 38.5521 24.0964 39.0469 23.6016C39.5417 23.1068 39.9974 22.651 40.4141 22.2344C40.4661 22.2344 40.5833 22.3646 40.7656 22.625C40.9479 22.8594 41.0391 23.0286 41.0391 23.1328C40.8828 23.4453 40.5833 23.8359 40.1406 24.3047C39.6979 24.7734 39.1771 25.2292 38.5781 25.6719C38.0052 26.1146 37.4062 26.4922 36.7812 26.8047C36.1823 27.1172 35.6484 27.2734 35.1797 27.2734C34.6849 27.2734 34.2812 27.0911 33.9688 26.7266C33.6562 26.3359 33.5 25.8021 33.5 25.125C33.5 24.9167 33.513 24.6302 33.5391 24.2656C33.5911 23.875 33.6693 23.4062 33.7734 22.8594C33.9818 22.1042 34.099 21.5312 34.125 21.1406C34.1771 20.75 34.2031 20.5547 34.2031 20.5547C33.9167 21.1276 33.5 21.8047 32.9531 22.5859C32.4323 23.3411 31.8464 24.0833 31.1953 24.8125C30.5443 25.5156 29.9062 26.1016 29.2812 26.5703C28.6562 27.0391 28.0964 27.2734 27.6016 27.2734Z" fill="#141414"/>
<path d="M49.3984 0.984375C49.9193 0.984375 50.349 1.17969 50.6875 1.57031C51.0521 1.9349 51.2344 2.39062 51.2344 2.9375C51.2344 3.69271 50.974 4.35677 50.4531 4.92969C49.9583 5.5026 49.3594 5.78906 48.6562 5.78906C48.1354 5.78906 47.7057 5.59375 47.3672 5.20312C47.0286 4.78646 46.8594 4.29167 46.8594 3.71875C46.8594 2.98958 47.1068 2.35156 47.6016 1.80469C48.0964 1.25781 48.6953 0.984375 49.3984 0.984375ZM48.2266 9.73438C48.6953 9.73438 49.0859 9.92969 49.3984 10.3203C49.737 10.6849 49.9062 11.1927 49.9062 11.8438C49.9062 12.1823 49.8802 12.5599 49.8281 12.9766C49.776 13.3672 49.6979 13.8229 49.5938 14.3438L47.9922 22.4297C47.9661 22.5339 47.9401 22.6641 47.9141 22.8203C47.9141 22.9766 47.9141 23.1589 47.9141 23.3672C47.9141 24.0182 48.0443 24.3438 48.3047 24.3438C48.7214 24.3438 49.1771 24.0964 49.6719 23.6016C50.1667 23.1068 50.6224 22.651 51.0391 22.2344C51.0911 22.2344 51.2083 22.3646 51.3906 22.625C51.5729 22.8594 51.6641 23.0286 51.6641 23.1328C51.5078 23.4453 51.2083 23.8359 50.7656 24.3047C50.3229 24.7734 49.8021 25.2292 49.2031 25.6719C48.6042 26.1146 48.0052 26.4922 47.4062 26.8047C46.8073 27.1172 46.2734 27.2734 45.8047 27.2734C45.3099 27.2734 44.8932 27.0911 44.5547 26.7266C44.2422 26.3359 44.0859 25.8021 44.0859 25.125C44.0859 24.8385 44.112 24.487 44.1641 24.0703C44.2161 23.6536 44.2943 23.1849 44.3984 22.6641L45.9219 14.8906C45.974 14.6042 46.013 14.3568 46.0391 14.1484C46.0651 13.9401 46.0781 13.7708 46.0781 13.6406C46.0781 13.0156 45.9479 12.7031 45.6875 12.7031C45.4792 12.7031 45.2057 12.8203 44.8672 13.0547C44.5547 13.2891 44.2422 13.5625 43.9297 13.875C43.6172 14.1875 43.3698 14.4479 43.1875 14.6562C43.1354 14.6562 43.0182 14.526 42.8359 14.2656C42.6536 14.0052 42.5625 13.8229 42.5625 13.7188C42.7188 13.4062 43.0052 13.0286 43.4219 12.5859C43.8646 12.1432 44.3594 11.7135 44.9062 11.2969C45.4792 10.8542 46.0521 10.4896 46.625 10.2031C47.224 9.89062 47.7578 9.73438 48.2266 9.73438Z" fill="#141414"/>
<path d="M52.9141 27.0781C52.7057 27.0781 52.5365 26.9609 52.4062 26.7266C52.3021 26.4922 52.237 26.2708 52.2109 26.0625C52.2109 26.0104 52.4193 25.75 52.8359 25.2812C53.2786 24.8125 53.8516 24.2005 54.5547 23.4453C55.2578 22.6901 56.026 21.8698 56.8594 20.9844C57.6927 20.099 58.526 19.2135 59.3594 18.3281C60.1927 17.4427 60.9609 16.6354 61.6641 15.9062C62.3672 15.151 62.9271 14.5521 63.3438 14.1094C63.7865 13.6667 64.0078 13.4453 64.0078 13.4453C63.6953 13.6016 63.4219 13.7318 63.1875 13.8359C62.9531 13.9401 62.7318 13.9922 62.5234 13.9922C61.9766 13.9922 61.4427 13.901 60.9219 13.7188C60.401 13.5104 59.8932 13.3151 59.3984 13.1328C58.9036 12.9505 58.4219 12.8594 57.9531 12.8594C57.5365 12.8594 57.1589 13.0156 56.8203 13.3281C56.5078 13.6406 56.2214 13.9922 55.9609 14.3828C55.7266 14.7474 55.5182 15.0208 55.3359 15.2031C55.1797 15.2552 55.0234 15.1771 54.8672 14.9688C54.737 14.7604 54.6328 14.5391 54.5547 14.3047C54.7891 13.7057 55.1276 13.0547 55.5703 12.3516C56.0391 11.6484 56.5599 11.0365 57.1328 10.5156C57.7318 9.99479 58.3047 9.73438 58.8516 9.73438C59.737 9.73438 60.7396 9.89062 61.8594 10.2031C62.9792 10.5156 64.112 10.6719 65.2578 10.6719C65.7526 10.6719 66.2214 10.5156 66.6641 10.2031C67.1068 9.89062 67.5625 9.73438 68.0312 9.73438C68.4219 9.73438 68.6172 10.125 68.6172 10.9062C68.6172 10.9583 68.3307 11.2969 67.7578 11.9219C67.2109 12.5469 66.4818 13.3281 65.5703 14.2656C64.6849 15.2031 63.7344 16.1927 62.7188 17.2344C61.7292 18.276 60.7786 19.2656 59.8672 20.2031C58.9818 21.1146 58.2526 21.8698 57.6797 22.4688C57.1328 23.0417 56.8594 23.3281 56.8594 23.3281C57.0417 23.276 57.2891 23.1719 57.6016 23.0156C57.9401 22.8594 58.2656 22.7812 58.5781 22.7812C59.1771 22.7812 59.75 22.8724 60.2969 23.0547C60.8698 23.237 61.4167 23.4323 61.9375 23.6406C62.4844 23.8229 62.9922 23.9141 63.4609 23.9141C63.8516 23.9141 64.2161 23.7448 64.5547 23.4062C64.8932 23.0677 65.1927 22.7161 65.4531 22.3516C65.7135 21.9609 65.9089 21.7135 66.0391 21.6094C66.1953 21.5573 66.3385 21.6354 66.4688 21.8438C66.599 22.0521 66.6901 22.2865 66.7422 22.5469C66.5339 23.0156 66.2083 23.6146 65.7656 24.3438C65.3229 25.0469 64.8021 25.6849 64.2031 26.2578C63.6302 26.8047 62.9922 27.0781 62.2891 27.0781C61.4557 27.0781 60.4661 26.9219 59.3203 26.6094C58.1745 26.2708 57.0286 26.1016 55.8828 26.1016C55.3359 26.1016 54.8021 26.2708 54.2812 26.6094C53.7865 26.9219 53.3307 27.0781 52.9141 27.0781Z" fill="#141414"/>
<path d="M73.5781 27.1172C73.526 26.9609 73.5 26.8698 73.5 26.8438C73.5 26.2448 73.5781 25.9453 73.7344 25.9453C73.9427 25.9453 74.2422 25.8932 74.6328 25.7891C75.0234 25.6589 75.401 25.5026 75.7656 25.3203C76.1562 25.112 76.4167 24.9167 76.5469 24.7344C76.7292 24.526 76.9766 24.1745 77.2891 23.6797C77.6276 23.1589 78.0312 22.4948 78.5 21.6875L89.3203 3.17188C90.1536 1.76562 90.8307 1.0625 91.3516 1.0625C91.5078 1.0625 91.638 1.11458 91.7422 1.21875L95.4141 21.6875L95.9609 24.5391C96.013 24.7995 96.1693 25.0339 96.4297 25.2422C96.7161 25.4505 97.0156 25.6198 97.3281 25.75C97.6667 25.8802 97.9141 25.9453 98.0703 25.9453C98.1224 25.9453 98.1484 26.0234 98.1484 26.1797C98.1484 26.6224 98.0964 26.9349 97.9922 27.1172L93.5391 26.8828C93.2526 26.8828 91.625 26.9609 88.6562 27.1172C88.6302 27.0911 88.6172 27.013 88.6172 26.8828C88.6172 26.2578 88.6953 25.9453 88.8516 25.9453C89.112 25.9453 89.5026 25.8542 90.0234 25.6719C90.5443 25.4635 90.8698 25.2552 91 25.0469C91.1562 24.7344 91.2344 24.3438 91.2344 23.875C91.2344 23.7448 91.1693 23.224 91.0391 22.3125C90.9089 21.375 90.7135 20.0339 90.4531 18.2891C90.4531 18.1589 90.388 18.0938 90.2578 18.0938C89.7891 18.0156 88.5651 17.9766 86.5859 17.9766C85.6224 17.9766 84.3984 18.0156 82.9141 18.0938C82.7839 18.0938 82.7057 18.1458 82.6797 18.25C82.6536 18.3021 82.4583 18.6016 82.0938 19.1484C81.7552 19.6953 81.3646 20.3464 80.9219 21.1016C80.4792 21.8307 80.0885 22.5339 79.75 23.2109C79.4115 23.862 79.2422 24.3438 79.2422 24.6562C79.2422 24.9167 79.3854 25.151 79.6719 25.3594C79.9844 25.5417 80.3229 25.6849 80.6875 25.7891C81.0781 25.8932 81.3776 25.9453 81.5859 25.9453C81.638 25.9453 81.6641 26.0104 81.6641 26.1406C81.6641 26.4792 81.5859 26.8047 81.4297 27.1172C81.1432 27.0911 80.6224 27.0521 79.8672 27C79.138 26.9219 78.4609 26.8828 77.8359 26.8828C77.4193 26.8828 76.9115 26.9089 76.3125 26.9609C75.7396 26.987 75.1927 27.013 74.6719 27.0391C74.1771 27.0651 73.8125 27.0911 73.5781 27.1172ZM87.0547 15.8672C87.8099 15.8672 88.7474 15.8281 89.8672 15.75C89.9714 15.75 90.0234 15.6979 90.0234 15.5938L89.3594 11.5703C89.1771 10.5026 89.0339 9.65625 88.9297 9.03125C88.8255 8.38021 88.7604 7.96354 88.7344 7.78125L84.2031 15.75C84.9844 15.8281 85.9349 15.8672 87.0547 15.8672Z" fill="#141414"/>
<path d="M105.258 27.2734C103.487 27.2734 102.602 26.1406 102.602 23.875C102.602 23.3802 102.654 22.7812 102.758 22.0781C102.862 21.375 103.005 20.5677 103.188 19.6562L104.125 14.8906C104.177 14.6562 104.216 14.4349 104.242 14.2266C104.268 14.0182 104.281 13.8229 104.281 13.6406C104.281 13.0156 104.151 12.7031 103.891 12.7031C103.682 12.7031 103.409 12.8203 103.07 13.0547C102.758 13.2891 102.445 13.5625 102.133 13.875C101.82 14.1875 101.573 14.4479 101.391 14.6562C101.339 14.6562 101.221 14.526 101.039 14.2656C100.857 14.0052 100.766 13.8229 100.766 13.7188C100.922 13.4062 101.208 13.0286 101.625 12.5859C102.068 12.1432 102.576 11.7135 103.148 11.2969C103.721 10.8542 104.294 10.4896 104.867 10.2031C105.466 9.89062 105.987 9.73438 106.43 9.73438C106.924 9.73438 107.328 9.92969 107.641 10.3203C107.953 10.6849 108.109 11.1927 108.109 11.8438C108.109 12.5469 108.005 13.3802 107.797 14.3438L106.664 19.8906C106.56 20.4635 106.482 20.9323 106.43 21.2969C106.378 21.6354 106.352 21.8958 106.352 22.0781C106.352 23.1719 106.664 23.7188 107.289 23.7188C107.68 23.7188 108.148 23.4062 108.695 22.7812C109.268 22.1302 109.854 21.2969 110.453 20.2812C111.078 19.2656 111.625 18.1719 112.094 17C112.589 15.8021 112.953 14.6562 113.188 13.5625L113.93 10.0078C114.398 9.8776 114.971 9.8125 115.648 9.8125C116.273 9.8125 116.872 9.8776 117.445 10.0078L115.062 22.4297C115.036 22.5599 115.01 22.7031 114.984 22.8594C114.984 23.0156 114.984 23.1849 114.984 23.3672C114.984 24.0182 115.115 24.3438 115.375 24.3438C115.766 24.3438 116.208 24.0964 116.703 23.6016C117.198 23.1068 117.654 22.651 118.07 22.2344C118.122 22.2344 118.24 22.3646 118.422 22.625C118.604 22.8594 118.695 23.0286 118.695 23.1328C118.539 23.4453 118.24 23.8359 117.797 24.3047C117.354 24.7734 116.833 25.2292 116.234 25.6719C115.661 26.1146 115.062 26.4922 114.438 26.8047C113.839 27.1172 113.305 27.2734 112.836 27.2734C112.341 27.2734 111.938 27.0911 111.625 26.7266C111.312 26.3359 111.156 25.8021 111.156 25.125C111.156 24.9167 111.169 24.6302 111.195 24.2656C111.247 23.875 111.326 23.4062 111.43 22.8594C111.638 22.1042 111.755 21.5312 111.781 21.1406C111.833 20.75 111.859 20.5547 111.859 20.5547C111.573 21.1276 111.156 21.8047 110.609 22.5859C110.089 23.3411 109.503 24.0833 108.852 24.8125C108.201 25.5156 107.562 26.1016 106.938 26.5703C106.312 27.0391 105.753 27.2734 105.258 27.2734Z" fill="#141414"/>
<path d="M124.633 35.8281C122.81 35.8281 121.299 35.4505 120.102 34.6953C118.93 33.9661 118.344 33.0286 118.344 31.8828C118.344 30.0859 120.036 28.5885 123.422 27.3906C123.083 27.3125 122.667 27.0781 122.172 26.6875C121.703 26.2708 121.469 25.8151 121.469 25.3203C121.469 25.0078 121.677 24.6693 122.094 24.3047C122.536 23.9141 123.083 23.5495 123.734 23.2109C124.385 22.8464 125.036 22.5599 125.688 22.3516C124.62 22.1693 123.708 21.6354 122.953 20.75C122.198 19.8646 121.82 18.8359 121.82 17.6641C121.82 16.2318 122.185 14.9167 122.914 13.7188C123.643 12.5208 124.594 11.5573 125.766 10.8281C126.964 10.099 128.24 9.73438 129.594 9.73438C130.271 9.73438 130.844 9.82552 131.312 10.0078C131.807 10.1641 132.315 10.3333 132.836 10.5156C133.383 10.6719 134.047 10.75 134.828 10.75H136.703C136.885 10.75 136.977 10.8932 136.977 11.1797C137.003 11.7005 136.872 12.1562 136.586 12.5469H134.516C134.359 12.5469 134.281 12.625 134.281 12.7812C134.281 12.9635 134.307 13.224 134.359 13.5625C134.438 13.901 134.477 14.3177 134.477 14.8125C134.477 16.0625 134.268 17.1172 133.852 17.9766C133.435 18.8099 132.94 19.5 132.367 20.0469C131.82 20.5938 131.312 21.0365 130.844 21.375C130.167 21.7656 129.438 22.1172 128.656 22.4297C127.901 22.7161 127.263 23.0026 126.742 23.2891C126.221 23.5495 125.961 23.849 125.961 24.1875C125.961 24.3438 126.234 24.526 126.781 24.7344C127.484 24.9688 128.188 25.1771 128.891 25.3594C129.594 25.5156 130.349 25.763 131.156 26.1016C131.938 26.4141 132.602 26.8568 133.148 27.4297C133.695 28.0026 133.969 28.6797 133.969 29.4609C133.969 30.5807 133.604 31.6224 132.875 32.5859C132.146 33.5755 131.091 34.3568 129.711 34.9297C128.331 35.5286 126.638 35.8281 124.633 35.8281ZM127.445 20.7109C128.174 20.7109 128.786 20.3984 129.281 19.7734C129.776 19.1484 130.141 18.3802 130.375 17.4688C130.635 16.5312 130.766 15.6458 130.766 14.8125C130.766 13.9271 130.596 13.1849 130.258 12.5859C129.919 11.9609 129.451 11.6484 128.852 11.6484C128.122 11.6484 127.51 11.974 127.016 12.625C126.521 13.276 126.143 14.0833 125.883 15.0469C125.622 16.0104 125.492 16.974 125.492 17.9375C125.492 18.7708 125.661 19.4479 126 19.9688C126.339 20.4635 126.82 20.7109 127.445 20.7109ZM126.195 34.0312C127.576 34.0312 128.643 33.7578 129.398 33.2109C130.18 32.6641 130.57 32 130.57 31.2188C130.57 29.9427 128.734 28.875 125.062 28.0156C124.255 28.3542 123.5 28.7448 122.797 29.1875C122.094 29.6302 121.742 30.2552 121.742 31.0625C121.742 33.0417 123.227 34.0312 126.195 34.0312Z" fill="#141414"/>
<path d="M142.016 27.2734C140.245 27.2734 139.359 26.1406 139.359 23.875C139.359 23.3802 139.411 22.7812 139.516 22.0781C139.62 21.375 139.763 20.5677 139.945 19.6562L140.883 14.8906C140.935 14.6562 140.974 14.4349 141 14.2266C141.026 14.0182 141.039 13.8229 141.039 13.6406C141.039 13.0156 140.909 12.7031 140.648 12.7031C140.44 12.7031 140.167 12.8203 139.828 13.0547C139.516 13.2891 139.203 13.5625 138.891 13.875C138.578 14.1875 138.331 14.4479 138.148 14.6562C138.096 14.6562 137.979 14.526 137.797 14.2656C137.615 14.0052 137.523 13.8229 137.523 13.7188C137.68 13.4062 137.966 13.0286 138.383 12.5859C138.826 12.1432 139.333 11.7135 139.906 11.2969C140.479 10.8542 141.052 10.4896 141.625 10.2031C142.224 9.89062 142.745 9.73438 143.188 9.73438C143.682 9.73438 144.086 9.92969 144.398 10.3203C144.711 10.6849 144.867 11.1927 144.867 11.8438C144.867 12.5469 144.763 13.3802 144.555 14.3438L143.422 19.8906C143.318 20.4635 143.24 20.9323 143.188 21.2969C143.135 21.6354 143.109 21.8958 143.109 22.0781C143.109 23.1719 143.422 23.7188 144.047 23.7188C144.438 23.7188 144.906 23.4062 145.453 22.7812C146.026 22.1302 146.612 21.2969 147.211 20.2812C147.836 19.2656 148.383 18.1719 148.852 17C149.346 15.8021 149.711 14.6562 149.945 13.5625L150.688 10.0078C151.156 9.8776 151.729 9.8125 152.406 9.8125C153.031 9.8125 153.63 9.8776 154.203 10.0078L151.82 22.4297C151.794 22.5599 151.768 22.7031 151.742 22.8594C151.742 23.0156 151.742 23.1849 151.742 23.3672C151.742 24.0182 151.872 24.3438 152.133 24.3438C152.523 24.3438 152.966 24.0964 153.461 23.6016C153.956 23.1068 154.411 22.651 154.828 22.2344C154.88 22.2344 154.997 22.3646 155.18 22.625C155.362 22.8594 155.453 23.0286 155.453 23.1328C155.297 23.4453 154.997 23.8359 154.555 24.3047C154.112 24.7734 153.591 25.2292 152.992 25.6719C152.419 26.1146 151.82 26.4922 151.195 26.8047C150.596 27.1172 150.062 27.2734 149.594 27.2734C149.099 27.2734 148.695 27.0911 148.383 26.7266C148.07 26.3359 147.914 25.8021 147.914 25.125C147.914 24.9167 147.927 24.6302 147.953 24.2656C148.005 23.875 148.083 23.4062 148.188 22.8594C148.396 22.1042 148.513 21.5312 148.539 21.1406C148.591 20.75 148.617 20.5547 148.617 20.5547C148.331 21.1276 147.914 21.8047 147.367 22.5859C146.846 23.3411 146.26 24.0833 145.609 24.8125C144.958 25.5156 144.32 26.1016 143.695 26.5703C143.07 27.0391 142.51 27.2734 142.016 27.2734Z" fill="#141414"/>
<path d="M160.57 27.2734C159.008 27.2734 157.771 26.8177 156.859 25.9062C156.677 25.6458 156.586 25.3073 156.586 24.8906C156.586 24.2917 156.716 23.7969 156.977 23.4062C157.263 22.9896 157.615 22.7812 158.031 22.7812C158.396 22.7812 158.721 22.9245 159.008 23.2109C159.32 23.4974 159.568 23.7969 159.75 24.1094C159.932 24.4479 160.193 24.7604 160.531 25.0469C160.896 25.3073 161.299 25.4375 161.742 25.4375C162.263 25.4375 162.667 25.2812 162.953 24.9688C163.24 24.6562 163.383 24.2396 163.383 23.7188C163.383 22.9635 162.979 22.0651 162.172 21.0234C161.651 20.3203 161.104 19.5911 160.531 18.8359C159.958 18.0807 159.477 17.3385 159.086 16.6094C158.721 15.8542 158.539 15.1641 158.539 14.5391C158.539 13.7057 158.812 12.9245 159.359 12.1953C159.906 11.4401 160.635 10.8281 161.547 10.3594C162.458 9.89062 163.461 9.65625 164.555 9.65625C166.117 9.65625 167.341 10.099 168.227 10.9844C168.435 11.3229 168.539 11.7005 168.539 12.1172C168.539 12.7161 168.396 13.2109 168.109 13.6016C167.849 13.9661 167.497 14.1484 167.055 14.1484C166.508 14.1484 165.948 13.7057 165.375 12.8203C164.802 11.9349 164.138 11.4922 163.383 11.4922C162.341 11.4922 161.82 12.0781 161.82 13.25C161.82 13.8229 162.068 14.513 162.562 15.3203C163.057 16.1016 163.617 16.8307 164.242 17.5078C164.841 18.2109 165.388 19.0182 165.883 19.9297C166.404 20.8151 166.664 21.6354 166.664 22.3906C166.664 23.3281 166.391 24.1745 165.844 24.9297C165.323 25.6589 164.594 26.2318 163.656 26.6484C162.745 27.0651 161.716 27.2734 160.57 27.2734Z" fill="#141414"/>
<path d="M171.977 27.2734C171.482 27.2734 171.065 27.0911 170.727 26.7266C170.414 26.3359 170.258 25.8021 170.258 25.125C170.258 24.8385 170.284 24.487 170.336 24.0703C170.414 23.6536 170.505 23.1849 170.609 22.6641L172.602 12.3906H170.102C170.023 12.3906 169.984 12.2344 169.984 11.9219C169.984 11.6615 170.036 11.375 170.141 11.0625C170.271 10.75 170.388 10.5417 170.492 10.4375H172.992L173.852 6.14062C173.93 5.82812 174.815 5.67188 176.508 5.67188C176.716 5.67188 176.898 5.6849 177.055 5.71094C177.211 5.71094 177.354 5.72396 177.484 5.75L176.508 10.4375H180.023C180.206 10.4375 180.297 10.6198 180.297 10.9844C180.297 11.4792 180.154 11.9479 179.867 12.3906H176.156L174.203 22.4297C174.125 22.6641 174.086 22.9766 174.086 23.3672C174.086 24.0182 174.216 24.3438 174.477 24.3438C174.893 24.3438 175.349 24.0964 175.844 23.6016C176.339 23.1068 176.794 22.651 177.211 22.2344C177.263 22.2344 177.38 22.3646 177.562 22.625C177.745 22.8594 177.836 23.0286 177.836 23.1328C177.68 23.4453 177.38 23.8359 176.938 24.3047C176.495 24.7734 175.974 25.2292 175.375 25.6719C174.802 26.1146 174.203 26.4922 173.578 26.8047C172.979 27.1172 172.445 27.2734 171.977 27.2734Z" fill="#141414"/>
<path d="M185.609 27.2344C183.812 27.2344 182.471 26.6875 181.586 25.5938C180.727 24.5 180.297 23.0156 180.297 21.1406C180.297 19.9167 180.531 18.6406 181 17.3125C181.469 15.9844 182.107 14.7474 182.914 13.6016C183.747 12.4557 184.711 11.5312 185.805 10.8281C186.898 10.099 188.07 9.73438 189.32 9.73438C191.091 9.73438 192.406 10.2943 193.266 11.4141C194.151 12.5078 194.594 14.0052 194.594 15.9062C194.594 17.1562 194.359 18.4453 193.891 19.7734C193.448 21.1016 192.81 22.3255 191.977 23.4453C191.169 24.5651 190.219 25.4766 189.125 26.1797C188.057 26.8828 186.885 27.2344 185.609 27.2344ZM186.156 25.3594C186.885 25.3594 187.523 24.9948 188.07 24.2656C188.643 23.5365 189.125 22.625 189.516 21.5312C189.932 20.4375 190.232 19.3177 190.414 18.1719C190.622 17.026 190.714 16.0365 190.688 15.2031C190.688 14.0573 190.531 13.1719 190.219 12.5469C189.906 11.8958 189.464 11.5703 188.891 11.5703C188.292 11.5703 187.706 11.8698 187.133 12.4688C186.586 13.0417 186.091 13.8229 185.648 14.8125C185.206 15.8021 184.854 16.9089 184.594 18.1328C184.333 19.3307 184.203 20.5417 184.203 21.7656C184.229 22.8854 184.411 23.7708 184.75 24.4219C185.089 25.0469 185.557 25.3594 186.156 25.3594Z" fill="#141414"/>
</svg>
