<svg width="60" height="53" viewBox="0 0 60 53" fill="none" xmlns="http://www.w3.org/2000/svg">
<path d="M30 10.6406C20.2634 10.6406 12.3482 17.5664 12.3348 26.0859C12.3348 29.0039 13.2723 31.8516 15.0402 34.3008L15.4554 34.8867L13.6741 40.582L20.3571 39.0469L21 39.3867C23.7054 40.793 26.8125 41.543 29.9866 41.543H30C39.7232 41.543 47.8527 34.6172 47.8527 26.0977C47.8527 21.9727 45.817 18.0937 42.4821 15.1758C39.1339 12.2461 34.7143 10.6406 30 10.6406ZM40.3795 32.7188C39.9375 33.8086 37.8214 34.793 36.8036 34.9219C35.1161 35.1445 33.8036 35.0273 30.442 33.7617C25.125 31.7461 21.6429 27.0586 21.375 26.7539C21.1071 26.4492 19.2054 24.2344 19.2054 21.9492C19.2054 19.6641 20.5714 18.5391 21.067 18.0703C21.5491 17.6016 22.125 17.4844 22.4866 17.4844C22.8348 17.4844 23.1964 17.4844 23.5045 17.4961C23.8259 17.5078 24.2679 17.3906 24.6964 18.293C25.1384 19.2188 26.1964 21.5039 26.3304 21.7383C26.4643 21.9727 26.558 22.2422 26.3705 22.5469C25.3527 24.3281 24.2679 24.2578 24.817 25.0781C26.8661 28.1602 28.9152 29.2266 32.0357 30.5977C32.5714 30.832 32.8795 30.7969 33.1875 30.4805C33.4955 30.1758 34.5134 29.1211 34.8616 28.6641C35.2098 28.1953 35.5714 28.2773 36.0536 28.4297C36.5357 28.582 39.1473 29.707 39.683 29.9414C40.2187 30.1758 40.567 30.293 40.7009 30.4805C40.8214 30.7031 40.8214 31.6406 40.3795 32.7188V32.7188ZM53.5714 0H6.42857C2.87946 0 0 2.51953 0 5.625V46.875C0 49.9805 2.87946 52.5 6.42857 52.5H53.5714C57.1205 52.5 60 49.9805 60 46.875V5.625C60 2.51953 57.1205 0 53.5714 0ZM29.9866 44.6719C26.4241 44.6719 22.9286 43.8867 19.8348 42.4102L8.57143 45L11.5848 35.3672C9.72321 32.5547 8.74554 29.3555 8.74554 26.0742C8.75893 15.832 18.2812 7.5 29.9866 7.5C35.6652 7.5 40.9955 9.43359 45.0134 12.9492C49.0179 16.4648 51.4286 21.1289 51.4286 26.0977C51.4286 36.3398 41.692 44.6719 29.9866 44.6719Z" fill="url(#paint0_linear_79_7)"/>
<defs>
<linearGradient id="paint0_linear_79_7" x1="30" y1="0" x2="30" y2="52.5" gradientUnits="userSpaceOnUse">
<stop stop-color="#8489FF"/>
<stop offset="1" stop-color="#040BAB"/>
</linearGradient>
</defs>
</svg>
